<?xml version="1.0" encoding="utf-8"?>
<!-- Generator: Adobe Illustrator 16.0.0, SVG Export Plug-In . SVG Version: 6.00 Build 0)  -->
<!DOCTYPE svg PUBLIC "-//W3C//DTD SVG 1.1//EN" "http://www.w3.org/Graphics/SVG/1.1/DTD/svg11.dtd">
<svg version="1.1" xmlns="http://www.w3.org/2000/svg" xmlns:xlink="http://www.w3.org/1999/xlink" x="0px" y="0px" width="90px"
	 height="106px" viewBox="0 0 90 106" enable-background="new 0 0 90 106" xml:space="preserve">
<g id="Base">
	<path fill="#B8AFE2" d="M45,4.282L3,28.641v48.718l42,24.359l42-24.359V28.641L45,4.282z M67.291,43.314
		c0,0.219,0.014,0.438,0.042,0.656c0.026,0.22,0.04,0.439,0.04,0.658c0,3.506-0.656,7.054-1.972,10.641
		c-1.314,3.589-3.246,6.834-5.793,9.738c-2.547,2.903-5.711,5.272-9.49,7.107c-3.78,1.836-8.108,2.753-12.983,2.753
		c-3.015,0-5.89-0.411-8.629-1.233c-2.74-0.821-5.288-1.999-7.643-3.533c0.438,0.056,0.85,0.097,1.233,0.123
		c0.383,0.029,0.794,0.043,1.233,0.043c2.518,0,4.901-0.396,7.148-1.192c2.244-0.794,4.272-1.903,6.081-3.328
		c-2.356-0.054-4.425-0.78-6.205-2.178c-1.779-1.396-3.027-3.135-3.739-5.218c0.33,0.055,0.658,0.096,0.987,0.123
		c0.328,0.029,0.685,0.041,1.068,0.041c1.039,0,1.973-0.109,2.792-0.328c-2.465-0.494-4.465-1.711-6.08-3.657
		C23.768,52.586,23,50.326,23,47.752v-0.165c1,0.877,3.053,1.314,4.808,1.314c-1.426-0.931-2.597-2.163-3.473-3.698
		c-0.875-1.532-1.325-3.23-1.325-5.094c0-1.973,0.488-3.752,1.475-5.342c2.629,3.234,5.817,5.821,9.57,7.766
		c3.752,1.945,7.847,3.055,12.284,3.328c-0.165-0.822-0.248-1.645-0.248-2.465c0-1.479,0.274-2.863,0.822-4.15
		c0.546-1.286,1.299-2.41,2.259-3.368c0.958-0.958,2.081-1.712,3.369-2.261c1.286-0.547,2.67-0.821,4.148-0.821
		c1.534,0,2.973,0.302,4.314,0.903c1.343,0.604,2.479,1.426,3.411,2.465c1.259-0.272,2.438-0.615,3.533-1.026
		c1.094-0.411,2.163-0.917,3.204-1.521c-0.385,1.261-0.985,2.383-1.808,3.369c-0.821,0.986-1.78,1.809-2.877,2.465
		c2.138-0.218,4.191-0.766,6.164-1.643C71.209,39.836,69.428,41.67,67.291,43.314z"/>
</g>
<g id="Layer_8" display="none">
</g>
<g id="Hover:_twitter" display="none">
</g>
<g id="Hover:_mail" display="none">
</g>
<g id="About_Us" display="none">
</g>
<g id="Blog_Post" display="none">
</g>
<g id="Hover:_top_copy_2" display="none">
</g>
<g id="Hover:_top_copy">
</g>
</svg>
