<?xml version="1.0" encoding="utf-8"?>
<!-- Generator: Adobe Illustrator 16.0.0, SVG Export Plug-In . SVG Version: 6.00 Build 0)  -->
<!DOCTYPE svg PUBLIC "-//W3C//DTD SVG 1.1//EN" "http://www.w3.org/Graphics/SVG/1.1/DTD/svg11.dtd">
<svg version="1.1" xmlns="http://www.w3.org/2000/svg" xmlns:xlink="http://www.w3.org/1999/xlink" x="0px" y="0px"
	 width="216.907px" height="104.635px" viewBox="0 0 216.907 104.635" enable-background="new 0 0 216.907 104.635"
	 xml:space="preserve">
<g id="Base">
	<path d="M195.955,12.816c-10.076-6.928-21.419-10.08-41.736-10.08c-3.337,0-7.281,0.114-11.379,0.344
		c-0.33-0.105-0.726-0.168-1.211-0.168h-25.991c-1.793,0-3.136-0.447-3.136,1.568c0,2.912,4.256,2.912,6.274,2.912
		c12.097,0,9.86,8.515,9.86,17.927v42.793c0,6.275,0.891,11.426-3.812,16.585c-6.273,6.941-14.338,10.079-23.974,10.079
		c-8.291,0-17.925-2.913-22.406-10.306c-4.031-6.498-4.031-17.703-4.031-25.098V20.111c0.096-5.298,0.252-10.32-4.509-14.289
		C64.753,1.121,56.461,0,49.518,0C35.175,0,19.941,6.049,9.411,15.459C5.154,19.044,0,25.542,0,31.367
		c0,2.242,1.123,2.687,2.914,2.687c2.686,0,7.392-1.787,9.633-2.912c3.586-1.565,4.704-4.702,6.272-8.063
		c5.154-11.428,12.1-18.823,25.768-18.823c13.892,0,14.342,9.187,14.342,20.167v9.857c0,8.515-0.227,8.739-8.291,12.547
		l-17.255,8.068C21.06,60.942,0.223,70.355,0.223,86.262c0,11.202,10.532,17.698,21.062,17.698c14.462,0,26.211-9.37,32.138-14.206
		c2.062-1.683,3.21-2.989,3.374-3.398c0,0,0.608-1.326-0.816-2.144c-1.425-0.816-2.655,0.485-2.655,0.485
		c-5.375,5.374-12.996,8.957-20.834,8.957c-8.29,0-15.461-4.479-15.461-13.217c0-10.756,8.735-16.581,17.474-21.064l20.392-10.307
		c0.673-0.225,1.791-0.896,2.462-0.896c1.044,0,1.451,1.169,1.594,2.502v3.239c-0.014,0.236-0.023,0.423-0.023,0.534v13.441
		l0.08,0.158c0.234,8.139,1.373,16.141,6.665,22.922c6.5,8.515,15.46,12.993,26.441,12.993c20.387,0,30.92-15.684,34.276-15.684
		c2.917,0,1.795,8.067,1.795,9.188v5.377c0,1.119,0,1.794,1.121,1.794c0.668,0,2.061-1.048,2.462-1.344
		c4.19-3.074,4.445-4.473,10.872-5.777c1.915-0.385,3.516,0.028,5.016-0.498c1.847-0.646,3.317-2.227,2.383-2.566
		c-7.383-2.708-5.95-11.322-5.95-20.062V15.565c0.424-6.062,2.362-8.735,10.285-8.735c33.39,0,43.94,28.191,43.94,46.15
		c0,21.371-13.361,38.551-30.205,43.279l-1.711,0.35c-3.152,0.156-5.516,0.319-5.516,2.676c0,2.207,2.047,2.207,3.149,2.207
		l0.105-0.005c41.107,0,52.767-32.601,52.767-49.452C216.907,36.757,208.871,21.638,195.955,12.816"/>
</g>
<g id="Layer_8" display="none">
</g>
<g id="Hover:_twitter" display="none">
</g>
<g id="Hover:_mail" display="none">
</g>
<g id="About_Us" display="none">
</g>
<g id="Blog_Post" display="none">
</g>
<g id="Hover:_top_copy_2" display="none">
</g>
<g id="Hover:_top_copy">
</g>
</svg>
